STARTFONT 2.1
COMMENT Copyright (C) 1990-1991 EWT Consulting
COMMENT Portions Copyright (C) 1994-1995 Cronyx Ltd.
COMMENT Changes Copyright (C) 1996-1997 by Andrey A. Chernov, Moscow, Russia.
COMMENT Modified by Serge Vakulenko, <vak@cronyx.ru>
COMMENT Changes 1999 by Serge Winitzki.
COMMENT This software may be used, modified, copied, distributed, and sold,
COMMENT in both source and binary form provided that the copyright
COMMENT and these terms are retained. Under no circumstances is the author
COMMENT responsible for the proper functioning of this software, nor does
COMMENT the author assume any responsibility for damages incurred with its use.
COMMENT $XFree86$
FONT -Cronyx-Courier-Bold-O-Normal--14-100-100-100-M-80-KOI8-R
SIZE 10 96 96
FONTBOUNDINGBOX 12 13 -1 -2
STARTPROPERTIES 21
DEFAULT_CHAR 32
FONT_ASCENT 11
FONT_DESCENT 2
SPACING "M"
FONTNAME_REGISTRY ""
FOUNDRY "Cronyx"
FAMILY_NAME "Courier"
WEIGHT_NAME "Bold"
SLANT "O"
SETWIDTH_NAME "Normal"
ADD_STYLE_NAME ""
AVERAGE_WIDTH 80
CHARSET_REGISTRY "KOI8"
CHARSET_ENCODING "R"
PIXEL_SIZE 14
POINT_SIZE 100
RESOLUTION_X 100
RESOLUTION_Y 100
COPYRIGHT "Copyright (C) 1990, 1991 EWT Consulting, Portions Copyright (C) 1994 Cronyx Ltd., Portions Copyright (C) 1996-1997 by Andrey A. Chernov, Moscow, Russia."
_XMBDFED_INFO "Edited with xmbdfed 4.3."
_XFREE86_GLYPH_RANGES "32_126 149 154 156_158 163 179 191_255"
ENDPROPERTIES
CHARS 167
STARTCHAR space
ENCODING 32
SWIDTH 692 0
DWIDTH 9 0
BBX 0 0 -1 0
BITMAP
ENDCHAR
STARTCHAR exclam
ENCODING 33
SWIDTH 1000 0
DWIDTH 9 0
BBX 4 9 3 0
BITMAP
30
30
60
60
60
60
C0
00
C0
ENDCHAR
STARTCHAR quotedbl
ENCODING 34
SWIDTH 3000 0
DWIDTH 9 0
BBX 4 3 3 6
BITMAP
F0
F0
F0
ENDCHAR
STARTCHAR numbersign
ENCODING 35
SWIDTH 1000 0
DWIDTH 9 0
BBX 10 9 0 0
BITMAP
0780
0780
3F80
1E00
1E00
1E00
FE00
7800
7800
ENDCHAR
STARTCHAR dollar
ENCODING 36
SWIDTH 1000 0
DWIDTH 9 0
BBX 8 9 1 0
BITMAP
0C
1E
66
60
3C
06
CC
78
30
ENDCHAR
STARTCHAR percent
ENCODING 37
SWIDTH 1000 0
DWIDTH 9 0
BBX 10 9 0 0
BITMAP
1800
3CC0
3300
0600
0C00
1800
6600
CF00
0600
ENDCHAR
STARTCHAR ampersand
ENCODING 38
SWIDTH 1000 0
DWIDTH 9 0
BBX 10 9 0 0
BITMAP
0E00
1800
3000
1800
3800
6D80
DE00
CC00
7F00
ENDCHAR
STARTCHAR quotesingle
ENCODING 39
SWIDTH 3000 0
DWIDTH 9 0
BBX 2 3 4 6
BITMAP
C0
C0
C0
ENDCHAR
STARTCHAR parenleft
ENCODING 40
SWIDTH 818 0
DWIDTH 9 0
BBX 6 11 2 -2
BITMAP
0C
18
18
30
60
60
60
60
60
60
30
ENDCHAR
STARTCHAR parenright
ENCODING 41
SWIDTH 818 0
DWIDTH 9 0
BBX 6 11 2 -2
BITMAP
30
18
18
0C
18
18
18
18
60
60
C0
ENDCHAR
STARTCHAR asterisk
ENCODING 42
SWIDTH 1800 0
DWIDTH 9 0
BBX 9 5 1 2
BITMAP
3F00
1E00
FF00
3C00
7E00
ENDCHAR
STARTCHAR plus
ENCODING 43
SWIDTH 1286 0
DWIDTH 9 0
BBX 9 7 0 0
BITMAP
0C00
0C00
0C00
7F80
1800
1800
1800
ENDCHAR
STARTCHAR comma
ENCODING 44
SWIDTH 4500 0
DWIDTH 9 0
BBX 3 2 2 -1
BITMAP
60
C0
ENDCHAR
STARTCHAR hyphen
ENCODING 45
SWIDTH 9000 0
DWIDTH 9 0
BBX 7 1 1 3
BITMAP
FE
ENDCHAR
STARTCHAR period
ENCODING 46
SWIDTH 9000 0
DWIDTH 9 0
BBX 2 1 3 0
BITMAP
C0
ENDCHAR
STARTCHAR slash
ENCODING 47
SWIDTH 1286 0
DWIDTH 9 0
BBX 9 7 1 1
BITMAP
0180
0300
0600
0C00
3000
6000
C000
ENDCHAR
STARTCHAR zero
ENCODING 48
SWIDTH 1000 0
DWIDTH 9 0
BBX 8 9 1 0
BITMAP
1E
33
66
66
66
66
CC
CC
78
ENDCHAR
STARTCHAR one
ENCODING 49
SWIDTH 1000 0
DWIDTH 9 0
BBX 8 9 1 0
BITMAP
0C
3C
18
18
18
18
30
30
FC
ENDCHAR
STARTCHAR two
ENCODING 50
SWIDTH 1000 0
DWIDTH 9 0
BBX 8 9 1 0
BITMAP
1E
33
06
06
0C
18
60
C0
FC
ENDCHAR
STARTCHAR three
ENCODING 51
SWIDTH 1000 0
DWIDTH 9 0
BBX 8 9 1 0
BITMAP
1E
33
06
06
1C
06
0C
CC
78
ENDCHAR
STARTCHAR four
ENCODING 52
SWIDTH 1000 0
DWIDTH 9 0
BBX 8 9 1 0
BITMAP
06
0E
1C
3C
3C
6C
FC
18
3C
ENDCHAR
STARTCHAR five
ENCODING 53
SWIDTH 1000 0
DWIDTH 9 0
BBX 8 9 1 0
BITMAP
3F
30
60
60
7C
06
0C
CC
78
ENDCHAR
STARTCHAR six
ENCODING 54
SWIDTH 1000 0
DWIDTH 9 0
BBX 8 9 1 0
BITMAP
0E
18
60
60
7C
66
CC
CC
78
ENDCHAR
STARTCHAR seven
ENCODING 55
SWIDTH 1000 0
DWIDTH 9 0
BBX 8 9 1 0
BITMAP
3F
33
06
0C
0C
18
30
60
60
ENDCHAR
STARTCHAR eight
ENCODING 56
SWIDTH 1000 0
DWIDTH 9 0
BBX 8 9 1 0
BITMAP
1E
33
66
66
3C
66
CC
CC
78
ENDCHAR
STARTCHAR nine
ENCODING 57
SWIDTH 1000 0
DWIDTH 9 0
BBX 8 9 1 0
BITMAP
1E
33
66
66
3E
06
0C
18
70
ENDCHAR
STARTCHAR colon
ENCODING 58
SWIDTH 1500 0
DWIDTH 9 0
BBX 3 6 3 0
BITMAP
60
00
00
00
00
C0
ENDCHAR
STARTCHAR semicolon
ENCODING 59
SWIDTH 1286 0
DWIDTH 9 0
BBX 4 7 2 -1
BITMAP
30
00
00
00
00
60
C0
ENDCHAR
STARTCHAR less
ENCODING 60
SWIDTH 1286 0
DWIDTH 9 0
BBX 6 7 1 0
BITMAP
0C
18
30
60
60
30
18
ENDCHAR
STARTCHAR equal
ENCODING 61
SWIDTH 3000 0
DWIDTH 9 0
BBX 6 3 2 3
BITMAP
FC
00
FC
ENDCHAR
STARTCHAR greater
ENCODING 62
SWIDTH 1286 0
DWIDTH 9 0
BBX 6 7 2 0
BITMAP
60
30
18
0C
30
60
C0
ENDCHAR
STARTCHAR question
ENCODING 63
SWIDTH 1000 0
DWIDTH 9 0
BBX 8 9 1 0
BITMAP
1E
33
06
06
0C
18
30
00
30
ENDCHAR
STARTCHAR at
ENCODING 64
SWIDTH 1000 0
DWIDTH 9 0
BBX 10 9 0 0
BITMAP
0F80
18C0
6F80
7F80
7F80
7F80
DE00
6000
3C00
ENDCHAR
STARTCHAR A
ENCODING 65
SWIDTH 1000 0
DWIDTH 9 0
BBX 10 9 0 0
BITMAP
0E00
0600
0C00
1E00
1E00
3300
7E00
6600
FF00
ENDCHAR
STARTCHAR B
ENCODING 66
SWIDTH 1000 0
DWIDTH 9 0
BBX 10 9 0 0
BITMAP
3F80
18C0
3180
3180
3F00
3180
6300
6300
FE00
ENDCHAR
STARTCHAR C
ENCODING 67
SWIDTH 1000 0
DWIDTH 9 0
BBX 10 9 0 0
BITMAP
0F80
18C0
6000
6000
6000
6000
C000
6300
3E00
ENDCHAR
STARTCHAR D
ENCODING 68
SWIDTH 1000 0
DWIDTH 9 0
BBX 10 9 0 0
BITMAP
3F00
1980
3180
3180
3180
3180
6300
6600
FC00
ENDCHAR
STARTCHAR E
ENCODING 69
SWIDTH 1000 0
DWIDTH 9 0
BBX 10 9 0 0
BITMAP
3FC0
18C0
3000
3600
3E00
3600
6000
6300
FF00
ENDCHAR
STARTCHAR F
ENCODING 70
SWIDTH 1000 0
DWIDTH 9 0
BBX 10 9 0 0
BITMAP
3FC0
18C0
3000
3600
3E00
3600
6000
6000
F800
ENDCHAR
STARTCHAR G
ENCODING 71
SWIDTH 1000 0
DWIDTH 9 0
BBX 10 9 0 0
BITMAP
0F80
18C0
6000
6000
6000
6780
C300
6300
3E00
ENDCHAR
STARTCHAR H
ENCODING 72
SWIDTH 1000 0
DWIDTH 9 0
BBX 10 9 0 0
BITMAP
3FC0
1980
3300
3300
3F00
3300
6600
6600
FF00
ENDCHAR
STARTCHAR I
ENCODING 73
SWIDTH 1000 0
DWIDTH 9 0
BBX 8 9 1 0
BITMAP
3F
0C
18
18
18
18
30
30
FC
ENDCHAR
STARTCHAR J
ENCODING 74
SWIDTH 1000 0
DWIDTH 9 0
BBX 9 9 0 0
BITMAP
0F80
0300
0600
0600
0600
0600
CC00
CC00
7800
ENDCHAR
STARTCHAR K
ENCODING 75
SWIDTH 1000 0
DWIDTH 9 0
BBX 10 9 0 0
BITMAP
3DC0
1980
3600
3600
3C00
3C00
6C00
6600
F700
ENDCHAR
STARTCHAR L
ENCODING 76
SWIDTH 1000 0
DWIDTH 9 0
BBX 10 9 0 0
BITMAP
3F00
0C00
1800
1800
1800
1800
3000
3300
FF00
ENDCHAR
STARTCHAR M
ENCODING 77
SWIDTH 1000 0
DWIDTH 9 0
BBX 10 9 0 0
BITMAP
39C0
1980
3F00
3F00
3F00
3F00
6600
6600
FF00
ENDCHAR
STARTCHAR N
ENCODING 78
SWIDTH 1000 0
DWIDTH 9 0
BBX 10 9 0 0
BITMAP
3BC0
1980
3B00
3B00
3F00
3700
6E00
6600
F600
ENDCHAR
STARTCHAR O
ENCODING 79
SWIDTH 1000 0
DWIDTH 9 0
BBX 10 9 0 0
BITMAP
0F00
1980
6180
6180
6180
6180
C300
6600
3C00
ENDCHAR
STARTCHAR P
ENCODING 80
SWIDTH 1000 0
DWIDTH 9 0
BBX 10 9 0 0
BITMAP
3F80
18C0
3180
3180
3F00
3000
6000
6000
F800
ENDCHAR
STARTCHAR Q
ENCODING 81
SWIDTH 900 0
DWIDTH 9 0
BBX 10 10 0 -1
BITMAP
0F00
1980
30C0
6180
6180
6180
6180
6600
3C00
3F00
ENDCHAR
STARTCHAR R
ENCODING 82
SWIDTH 1000 0
DWIDTH 9 0
BBX 10 9 0 0
BITMAP
3F80
18C0
3180
3180
3F00
3600
6C00
6600
F700
ENDCHAR
STARTCHAR S
ENCODING 83
SWIDTH 1000 0
DWIDTH 9 0
BBX 10 9 0 0
BITMAP
1F80
30C0
6000
6000
3F00
0180
0300
C300
7E00
ENDCHAR
STARTCHAR T
ENCODING 84
SWIDTH 1000 0
DWIDTH 9 0
BBX 10 9 0 0
BITMAP
3FC0
36C0
0C00
0C00
0C00
0C00
1800
1800
3C00
ENDCHAR
STARTCHAR U
ENCODING 85
SWIDTH 1000 0
DWIDTH 9 0
BBX 10 9 0 0
BITMAP
3FC0
1980
3300
3300
3300
3300
6600
6600
3C00
ENDCHAR
STARTCHAR V
ENCODING 86
SWIDTH 1000 0
DWIDTH 9 0
BBX 10 9 0 0
BITMAP
3FC0
1980
3300
3300
1E00
1E00
3C00
1800
1800
ENDCHAR
STARTCHAR W
ENCODING 87
SWIDTH 1000 0
DWIDTH 9 0
BBX 10 9 0 0
BITMAP
3FC0
1980
3300
3300
3F00
3F00
7E00
3C00
3C00
ENDCHAR
STARTCHAR X
ENCODING 88
SWIDTH 1000 0
DWIDTH 9 0
BBX 10 9 0 0
BITMAP
3FC0
1980
1E00
1E00
0C00
1E00
3C00
6600
FF00
ENDCHAR
STARTCHAR Y
ENCODING 89
SWIDTH 1000 0
DWIDTH 9 0
BBX 10 9 0 0
BITMAP
3FC0
1980
3300
1E00
1E00
0C00
1800
1800
3C00
ENDCHAR
STARTCHAR Z
ENCODING 90
SWIDTH 1000 0
DWIDTH 9 0
BBX 10 9 0 0
BITMAP
3FC0
3180
0600
0600
0C00
1800
3000
6300
FF00
ENDCHAR
STARTCHAR bracketleft
ENCODING 91
SWIDTH 818 0
DWIDTH 9 0
BBX 6 11 2 -2
BITMAP
3C
30
30
30
60
60
60
60
C0
C0
F0
ENDCHAR
STARTCHAR backslash
ENCODING 92
SWIDTH 1286 0
DWIDTH 9 0
BBX 9 7 1 1
BITMAP
6000
3000
1800
0C00
0C00
0600
0300
ENDCHAR
STARTCHAR bracketright
ENCODING 93
SWIDTH 900 0
DWIDTH 9 0
BBX 6 10 2 -2
BITMAP
3C
0C
0C
18
18
18
18
30
30
F0
ENDCHAR
STARTCHAR asciicircum
ENCODING 94
SWIDTH 3000 0
DWIDTH 9 0
BBX 6 3 2 7
BITMAP
30
78
CC
ENDCHAR
STARTCHAR underscore
ENCODING 95
SWIDTH 9000 0
DWIDTH 9 0
BBX 9 1 -1 -2
BITMAP
FF80
ENDCHAR
STARTCHAR grave
ENCODING 96
SWIDTH 4500 0
DWIDTH 9 0
BBX 3 2 3 7
BITMAP
C0
60
ENDCHAR
STARTCHAR a
ENCODING 97
SWIDTH 1500 0
DWIDTH 9 0
BBX 9 6 0 0
BITMAP
3E00
0300
3F00
C600
C600
7F00
ENDCHAR
STARTCHAR b
ENCODING 98
SWIDTH 1000 0
DWIDTH 9 0
BBX 10 9 0 0
BITMAP
3800
1800
3000
3F00
3180
3180
6300
6300
FE00
ENDCHAR
STARTCHAR c
ENCODING 99
SWIDTH 1500 0
DWIDTH 9 0
BBX 9 6 0 0
BITMAP
3F00
6180
6000
C000
C300
7E00
ENDCHAR
STARTCHAR d
ENCODING 100
SWIDTH 1000 0
DWIDTH 9 0
BBX 10 9 0 0
BITMAP
0380
0180
0300
3F00
6300
6300
C600
C600
7F00
ENDCHAR
STARTCHAR e
ENCODING 101
SWIDTH 1500 0
DWIDTH 9 0
BBX 9 6 0 0
BITMAP
3F00
6180
7F80
C000
C300
7E00
ENDCHAR
STARTCHAR f
ENCODING 102
SWIDTH 1000 0
DWIDTH 9 0
BBX 7 9 1 0
BITMAP
0E
18
30
7C
30
30
60
60
F8
ENDCHAR
STARTCHAR g
ENCODING 103
SWIDTH 1125 0
DWIDTH 9 0
BBX 10 8 0 -2
BITMAP
1FC0
6300
6300
6300
3F00
0600
0600
7C00
ENDCHAR
STARTCHAR h
ENCODING 104
SWIDTH 1000 0
DWIDTH 9 0
BBX 10 9 0 0
BITMAP
3800
1800
3000
3E00
3B00
3300
6600
6600
FF00
ENDCHAR
STARTCHAR i
ENCODING 105
SWIDTH 1000 0
DWIDTH 9 0
BBX 8 9 1 0
BITMAP
0C
00
00
78
18
18
30
30
FC
ENDCHAR
STARTCHAR j
ENCODING 106
SWIDTH 818 0
DWIDTH 9 0
BBX 7 11 1 -2
BITMAP
06
00
00
3E
0C
0C
0C
0C
18
18
F0
ENDCHAR
STARTCHAR k
ENCODING 107
SWIDTH 1000 0
DWIDTH 9 0
BBX 10 9 0 0
BITMAP
3800
1800
3000
3700
3600
3C00
7800
6C00
E700
ENDCHAR
STARTCHAR l
ENCODING 108
SWIDTH 1000 0
DWIDTH 9 0
BBX 8 9 1 0
BITMAP
1C
0C
18
18
18
18
30
30
FC
ENDCHAR
STARTCHAR m
ENCODING 109
SWIDTH 1500 0
DWIDTH 9 0
BBX 9 6 0 0
BITMAP
7E00
3F00
3F00
7E00
7E00
FF00
ENDCHAR
STARTCHAR n
ENCODING 110
SWIDTH 1500 0
DWIDTH 9 0
BBX 9 6 0 0
BITMAP
7E00
3B00
3300
6600
6600
FF00
ENDCHAR
STARTCHAR o
ENCODING 111
SWIDTH 1500 0
DWIDTH 9 0
BBX 9 6 0 0
BITMAP
3F00
6180
6180
C300
C300
7E00
ENDCHAR
STARTCHAR p
ENCODING 112
SWIDTH 1125 0
DWIDTH 9 0
BBX 10 8 0 -2
BITMAP
3F80
3180
3180
3180
3180
7E00
6000
F000
ENDCHAR
STARTCHAR q
ENCODING 113
SWIDTH 1125 0
DWIDTH 9 0
BBX 10 8 0 -2
BITMAP
1FC0
6300
6300
6300
6300
7E00
0600
0F00
ENDCHAR
STARTCHAR r
ENCODING 114
SWIDTH 1500 0
DWIDTH 9 0
BBX 9 6 0 0
BITMAP
7F00
1D80
1800
3000
3000
FC00
ENDCHAR
STARTCHAR s
ENCODING 115
SWIDTH 1500 0
DWIDTH 9 0
BBX 9 6 0 0
BITMAP
3F00
6180
3C00
0E00
C300
7E00
ENDCHAR
STARTCHAR t
ENCODING 116
SWIDTH 1125 0
DWIDTH 9 0
BBX 8 8 1 0
BITMAP
18
30
7C
30
30
60
6C
38
ENDCHAR
STARTCHAR u
ENCODING 117
SWIDTH 1500 0
DWIDTH 9 0
BBX 9 6 0 0
BITMAP
7700
3300
3300
6600
6E00
3F00
ENDCHAR
STARTCHAR v
ENCODING 118
SWIDTH 1500 0
DWIDTH 9 0
BBX 9 6 0 0
BITMAP
7F80
3300
3300
3C00
3C00
1800
ENDCHAR
STARTCHAR w
ENCODING 119
SWIDTH 1500 0
DWIDTH 9 0
BBX 9 6 0 0
BITMAP
7F80
3300
3F00
7E00
3C00
3C00
ENDCHAR
STARTCHAR x
ENCODING 120
SWIDTH 1500 0
DWIDTH 9 0
BBX 9 6 0 0
BITMAP
7F80
3300
1E00
3C00
6600
FF00
ENDCHAR
STARTCHAR y
ENCODING 121
SWIDTH 1125 0
DWIDTH 9 0
BBX 10 8 0 -2
BITMAP
3FC0
3300
3300
1E00
1E00
1800
1800
7000
ENDCHAR
STARTCHAR z
ENCODING 122
SWIDTH 1500 0
DWIDTH 9 0
BBX 8 6 0 0
BITMAP
7F
66
0C
30
66
FE
ENDCHAR
STARTCHAR braceleft
ENCODING 123
SWIDTH 818 0
DWIDTH 9 0
BBX 8 11 1 -2
BITMAP
07
0C
0C
0C
18
70
18
18
30
30
1C
ENDCHAR
STARTCHAR bar
ENCODING 124
SWIDTH 750 0
DWIDTH 9 0
BBX 5 12 3 -2
BITMAP
18
30
30
30
30
60
60
60
60
C0
C0
C0
ENDCHAR
STARTCHAR braceright
ENCODING 125
SWIDTH 818 0
DWIDTH 9 0
BBX 8 11 1 -2
BITMAP
38
0C
0C
0C
18
0E
18
18
30
30
E0
ENDCHAR
STARTCHAR asciitilde
ENCODING 126
SWIDTH 3000 0
DWIDTH 9 0
BBX 8 3 1 5
BITMAP
73
DB
CE
ENDCHAR
STARTCHAR bullet
ENCODING 149
SWIDTH 1800 0
DWIDTH 9 0
BBX 7 5 2 2
BITMAP
3C
7E
FC
FC
78
ENDCHAR
STARTCHAR space
ENCODING 154
SWIDTH 692 0
DWIDTH 9 0
BBX 0 0 -1 0
BITMAP
ENDCHAR
STARTCHAR degree
ENCODING 156
SWIDTH 3000 0
DWIDTH 9 0
BBX 4 3 3 6
BITMAP
60
F0
60
ENDCHAR
STARTCHAR twosuperior
ENCODING 157
SWIDTH 1800 0
DWIDTH 9 0
BBX 5 5 3 4
BITMAP
30
78
30
60
F0
ENDCHAR
STARTCHAR periodcentered
ENCODING 158
SWIDTH 9000 0
DWIDTH 9 0
BBX 2 1 4 3
BITMAP
C0
ENDCHAR
STARTCHAR afii10071
ENCODING 163
SWIDTH 1125 0
DWIDTH 9 0
BBX 10 8 0 0
BITMAP
1F80
0000
3F00
6180
7F80
C000
C300
7E00
ENDCHAR
STARTCHAR afii10023
ENCODING 179
SWIDTH 818 0
DWIDTH 9 0
BBX 10 11 0 0
BITMAP
1F80
0000
3FC0
18C0
3000
3600
3E00
3600
6000
6300
FF00
ENDCHAR
STARTCHAR copyright
ENCODING 191
SWIDTH 1125 0
DWIDTH 9 0
BBX 10 8 1 1
BITMAP
0F00
3300
6F80
7980
7980
DF00
6600
3C00
ENDCHAR
STARTCHAR afii10096
ENCODING 192
SWIDTH 1500 0
DWIDTH 9 0
BBX 10 6 -1 0
BITMAP
7F80
3CC0
3CC0
7980
7980
FF00
ENDCHAR
STARTCHAR afii10065
ENCODING 193
SWIDTH 1500 0
DWIDTH 9 0
BBX 9 6 0 0
BITMAP
3E00
0300
3F00
C600
C600
7F00
ENDCHAR
STARTCHAR afii10066
ENCODING 194
SWIDTH 1000 0
DWIDTH 9 0
BBX 9 9 1 0
BITMAP
0180
1F00
6000
7E00
7300
6300
C600
C600
7C00
ENDCHAR
STARTCHAR afii10088
ENCODING 195
SWIDTH 1286 0
DWIDTH 9 0
BBX 9 7 0 -1
BITMAP
7F80
3300
3300
3300
6600
FF00
0300
ENDCHAR
STARTCHAR afii10069
ENCODING 196
SWIDTH 1286 0
DWIDTH 9 0
BBX 9 7 0 -1
BITMAP
3F80
1B00
1B00
1B00
6600
FF00
C300
ENDCHAR
STARTCHAR afii10070
ENCODING 197
SWIDTH 1500 0
DWIDTH 9 0
BBX 9 6 0 0
BITMAP
3F00
6180
7F80
C000
C300
7E00
ENDCHAR
STARTCHAR afii10086
ENCODING 198
SWIDTH 900 0
DWIDTH 9 0
BBX 10 10 0 -2
BITMAP
0F00
0600
1F80
6D80
6D80
6D80
6D80
7E00
1800
3C00
ENDCHAR
STARTCHAR afii10068
ENCODING 199
SWIDTH 1500 0
DWIDTH 9 0
BBX 8 6 0 0
BITMAP
7F
33
30
60
60
F0
ENDCHAR
STARTCHAR afii10087
ENCODING 200
SWIDTH 1500 0
DWIDTH 9 0
BBX 9 6 0 0
BITMAP
7F80
3300
1E00
3C00
6600
FF00
ENDCHAR
STARTCHAR afii10074
ENCODING 201
SWIDTH 1500 0
DWIDTH 9 0
BBX 9 6 0 0
BITMAP
7F80
3300
3700
7E00
7600
FF00
ENDCHAR
STARTCHAR afii10075
ENCODING 202
SWIDTH 1125 0
DWIDTH 9 0
BBX 10 8 0 0
BITMAP
0F00
0000
7F80
3300
3700
7E00
7600
FF00
ENDCHAR
STARTCHAR afii10076
ENCODING 203
SWIDTH 1500 0
DWIDTH 9 0
BBX 8 6 0 0
BITMAP
7F
36
3C
78
6C
FE
ENDCHAR
STARTCHAR afii10077
ENCODING 204
SWIDTH 1500 0
DWIDTH 9 0
BBX 9 6 0 0
BITMAP
3F80
1B00
1B00
3600
F600
EF00
ENDCHAR
STARTCHAR afii10078
ENCODING 205
SWIDTH 1500 0
DWIDTH 9 0
BBX 9 6 0 0
BITMAP
7380
3F00
3F00
7E00
6600
FF00
ENDCHAR
STARTCHAR afii10079
ENCODING 206
SWIDTH 1500 0
DWIDTH 9 0
BBX 9 6 0 0
BITMAP
7F80
3300
3F00
6600
6600
FF00
ENDCHAR
STARTCHAR afii10080
ENCODING 207
SWIDTH 1500 0
DWIDTH 9 0
BBX 9 6 0 0
BITMAP
3F00
6180
6180
C300
C300
7E00
ENDCHAR
STARTCHAR afii10081
ENCODING 208
SWIDTH 1500 0
DWIDTH 9 0
BBX 9 6 0 0
BITMAP
7F80
3300
3300
6600
6600
FF00
ENDCHAR
STARTCHAR afii10097
ENCODING 209
SWIDTH 1500 0
DWIDTH 9 0
BBX 9 6 0 0
BITMAP
1F80
3300
3300
3E00
3600
EF00
ENDCHAR
STARTCHAR afii10082
ENCODING 210
SWIDTH 1125 0
DWIDTH 9 0
BBX 10 8 0 -2
BITMAP
3F80
3180
3180
3180
3180
7E00
6000
F000
ENDCHAR
STARTCHAR afii10083
ENCODING 211
SWIDTH 1500 0
DWIDTH 9 0
BBX 9 6 0 0
BITMAP
3F00
6180
6000
C000
C300
7E00
ENDCHAR
STARTCHAR afii10084
ENCODING 212
SWIDTH 1500 0
DWIDTH 9 0
BBX 9 6 0 0
BITMAP
7F80
6D80
0C00
1800
1800
3C00
ENDCHAR
STARTCHAR afii10085
ENCODING 213
SWIDTH 1125 0
DWIDTH 9 0
BBX 10 8 0 -2
BITMAP
3FC0
3300
3300
1E00
1E00
1800
D800
7000
ENDCHAR
STARTCHAR afii10072
ENCODING 214
SWIDTH 1500 0
DWIDTH 9 0
BBX 9 6 0 0
BITMAP
7F80
3F00
1E00
7E00
7E00
FF00
ENDCHAR
STARTCHAR afii10067
ENCODING 215
SWIDTH 1500 0
DWIDTH 9 0
BBX 9 6 0 0
BITMAP
7F00
3180
3F00
6300
6300
FE00
ENDCHAR
STARTCHAR afii10094
ENCODING 216
SWIDTH 1500 0
DWIDTH 9 0
BBX 8 6 0 0
BITMAP
78
30
3E
66
66
FC
ENDCHAR
STARTCHAR afii10093
ENCODING 217
SWIDTH 1500 0
DWIDTH 9 0
BBX 10 6 -1 0
BITMAP
7BC0
3180
3D80
6F00
6F00
FF80
ENDCHAR
STARTCHAR afii10073
ENCODING 218
SWIDTH 1500 0
DWIDTH 9 0
BBX 9 6 0 0
BITMAP
7F00
6180
0F00
0300
C300
7E00
ENDCHAR
STARTCHAR afii10090
ENCODING 219
SWIDTH 1500 0
DWIDTH 9 0
BBX 9 6 0 0
BITMAP
7F80
3F00
3F00
7E00
7E00
FF00
ENDCHAR
STARTCHAR afii10095
ENCODING 220
SWIDTH 1500 0
DWIDTH 9 0
BBX 9 6 0 0
BITMAP
3F00
6180
0F80
0300
C300
7E00
ENDCHAR
STARTCHAR afii10091
ENCODING 221
SWIDTH 1286 0
DWIDTH 9 0
BBX 9 7 0 -1
BITMAP
7F80
3F00
3F00
3F00
7E00
FF00
0300
ENDCHAR
STARTCHAR afii10089
ENCODING 222
SWIDTH 1500 0
DWIDTH 9 0
BBX 9 6 0 0
BITMAP
7F80
3300
3700
3E00
0600
0F00
ENDCHAR
STARTCHAR afii10092
ENCODING 223
SWIDTH 1500 0
DWIDTH 9 0
BBX 9 6 0 0
BITMAP
7C00
7800
1F00
3300
3300
7E00
ENDCHAR
STARTCHAR afii10048
ENCODING 224
SWIDTH 1000 0
DWIDTH 9 0
BBX 11 9 -1 0
BITMAP
3FC0
1E60
3CC0
3CC0
3CC0
3CC0
7980
7980
FF00
ENDCHAR
STARTCHAR afii10017
ENCODING 225
SWIDTH 1000 0
DWIDTH 9 0
BBX 10 9 0 0
BITMAP
0600
0600
0C00
1E00
1E00
3300
7E00
6600
FF00
ENDCHAR
STARTCHAR afii10018
ENCODING 226
SWIDTH 1000 0
DWIDTH 9 0
BBX 10 9 0 0
BITMAP
3FC0
18C0
3000
3000
3F00
3180
6300
6300
FE00
ENDCHAR
STARTCHAR afii10040
ENCODING 227
SWIDTH 900 0
DWIDTH 9 0
BBX 10 10 0 -1
BITMAP
3FC0
1980
1980
3300
3300
3300
3300
6600
FF00
0300
ENDCHAR
STARTCHAR afii10021
ENCODING 228
SWIDTH 900 0
DWIDTH 9 0
BBX 10 10 0 -1
BITMAP
1FC0
0D80
0D80
1B00
1B00
1B00
1B00
6600
FF00
C300
ENDCHAR
STARTCHAR afii10022
ENCODING 229
SWIDTH 1000 0
DWIDTH 9 0
BBX 10 9 0 0
BITMAP
3FC0
18C0
3000
3600
3E00
3600
6000
6300
FF00
ENDCHAR
STARTCHAR afii10038
ENCODING 230
SWIDTH 900 0
DWIDTH 9 0
BBX 10 10 0 0
BITMAP
0600
0F00
1F80
6D80
6D80
6D80
6D80
7E00
3C00
1800
ENDCHAR
STARTCHAR afii10020
ENCODING 231
SWIDTH 1000 0
DWIDTH 9 0
BBX 10 9 0 0
BITMAP
3FC0
18C0
3000
3000
3000
3000
6000
6000
F800
ENDCHAR
STARTCHAR afii10039
ENCODING 232
SWIDTH 1000 0
DWIDTH 9 0
BBX 10 9 0 0
BITMAP
3FC0
1980
1E00
1E00
0C00
1E00
3C00
6600
FF00
ENDCHAR
STARTCHAR afii10026
ENCODING 233
SWIDTH 1000 0
DWIDTH 9 0
BBX 10 9 0 0
BITMAP
3FC0
1980
3300
3700
3F00
3F00
7600
6600
FF00
ENDCHAR
STARTCHAR afii10027
ENCODING 234
SWIDTH 818 0
DWIDTH 9 0
BBX 10 11 0 0
BITMAP
0F00
0600
3FC0
1980
3300
3700
3F00
3F00
7600
6600
FF00
ENDCHAR
STARTCHAR afii10028
ENCODING 235
SWIDTH 1000 0
DWIDTH 9 0
BBX 10 9 0 0
BITMAP
3DC0
1980
3600
3600
3C00
3C00
6C00
6600
F700
ENDCHAR
STARTCHAR afii10029
ENCODING 236
SWIDTH 1000 0
DWIDTH 9 0
BBX 10 9 0 0
BITMAP
1FC0
0D80
1B00
1B00
1B00
1B00
3600
F600
EF00
ENDCHAR
STARTCHAR afii10030
ENCODING 237
SWIDTH 1000 0
DWIDTH 9 0
BBX 10 9 0 0
BITMAP
39C0
1980
3F00
3F00
3F00
3F00
6600
6600
FF00
ENDCHAR
STARTCHAR afii10031
ENCODING 238
SWIDTH 1000 0
DWIDTH 9 0
BBX 10 9 0 0
BITMAP
3FC0
1980
3300
3300
3F00
3300
6600
6600
FF00
ENDCHAR
STARTCHAR afii10032
ENCODING 239
SWIDTH 1000 0
DWIDTH 9 0
BBX 10 9 0 0
BITMAP
0F00
1980
6180
6180
6180
6180
C300
6600
3C00
ENDCHAR
STARTCHAR afii10033
ENCODING 240
SWIDTH 1000 0
DWIDTH 9 0
BBX 10 9 0 0
BITMAP
3FC0
1980
3300
3300
3300
3300
6600
6600
FF00
ENDCHAR
STARTCHAR afii10049
ENCODING 241
SWIDTH 1000 0
DWIDTH 9 0
BBX 10 9 0 0
BITMAP
1FC0
3180
6300
6300
3F00
1B00
6600
6600
EF00
ENDCHAR
STARTCHAR afii10034
ENCODING 242
SWIDTH 1000 0
DWIDTH 9 0
BBX 10 9 0 0
BITMAP
3F80
18C0
3180
3180
3F00
3000
6000
6000
F000
ENDCHAR
STARTCHAR afii10035
ENCODING 243
SWIDTH 1000 0
DWIDTH 9 0
BBX 10 9 0 0
BITMAP
0FC0
19C0
6180
6000
6000
6000
C300
6300
3E00
ENDCHAR
STARTCHAR afii10036
ENCODING 244
SWIDTH 1000 0
DWIDTH 9 0
BBX 10 9 0 0
BITMAP
3FC0
36C0
0C00
0C00
0C00
0C00
1800
1800
3C00
ENDCHAR
STARTCHAR afii10037
ENCODING 245
SWIDTH 1000 0
DWIDTH 9 0
BBX 10 9 0 0
BITMAP
3FC0
1980
3300
1E00
1E00
0C00
1800
D800
7000
ENDCHAR
STARTCHAR afii10024
ENCODING 246
SWIDTH 1000 0
DWIDTH 9 0
BBX 10 9 0 0
BITMAP
3FC0
1F80
3F00
3F00
1E00
3F00
7E00
7E00
FF00
ENDCHAR
STARTCHAR afii10019
ENCODING 247
SWIDTH 1000 0
DWIDTH 9 0
BBX 10 9 0 0
BITMAP
3F80
18C0
3180
3180
3F00
3180
6300
6300
FE00
ENDCHAR
STARTCHAR afii10046
ENCODING 248
SWIDTH 1000 0
DWIDTH 9 0
BBX 10 9 0 0
BITMAP
3C00
1800
3000
3000
3F00
3180
6300
6300
FE00
ENDCHAR
STARTCHAR afii10045
ENCODING 249
SWIDTH 1000 0
DWIDTH 9 0
BBX 11 9 -1 0
BITMAP
3DE0
18C0
3180
3180
3D80
3780
6F00
6F00
FF80
ENDCHAR
STARTCHAR afii10025
ENCODING 250
SWIDTH 1000 0
DWIDTH 9 0
BBX 9 9 0 0
BITMAP
3F00
3980
6300
0300
1E00
0300
C600
C600
7C00
ENDCHAR
STARTCHAR afii10042
ENCODING 251
SWIDTH 1000 0
DWIDTH 9 0
BBX 10 9 0 0
BITMAP
3FC0
1F80
3F00
3F00
3F00
3F00
7E00
7E00
FF00
ENDCHAR
STARTCHAR afii10047
ENCODING 252
SWIDTH 1000 0
DWIDTH 9 0
BBX 9 9 0 0
BITMAP
1E00
3300
0300
0300
3F00
0300
0600
CC00
7800
ENDCHAR
STARTCHAR afii10043
ENCODING 253
SWIDTH 900 0
DWIDTH 9 0
BBX 10 10 0 -1
BITMAP
3FC0
1F80
1F80
3F00
3F00
3F00
3F00
7E00
FF00
0300
ENDCHAR
STARTCHAR afii10041
ENCODING 254
SWIDTH 1000 0
DWIDTH 9 0
BBX 10 9 0 0
BITMAP
3FC0
1980
3300
3300
3700
1F00
0600
0600
0F00
ENDCHAR
STARTCHAR afii10044
ENCODING 255
SWIDTH 1000 0
DWIDTH 9 0
BBX 10 9 0 0
BITMAP
3E00
3C00
7800
1800
1F00
1980
3300
3300
7E00
ENDCHAR
ENDFONT
